<?xml version="1.0" encoding="utf-8"?>
<!-- Generator: Adobe Illustrator 25.0.0, SVG Export Plug-In . SVG Version: 6.00 Build 0)  -->
<svg version="1.1" id="Layer_1" xmlns="http://www.w3.org/2000/svg" xmlns:xlink="http://www.w3.org/1999/xlink" x="0px" y="0px"
	viewBox="0 0 454.3 152.2" style="enable-background:new 0 0 454.3 152.2;" xml:space="preserve">
<style type="text/css">
	.st0{fill:none;}
	.st1{fill:#00549E;}
	.st2{fill:#8DC63F;}
	.st3{fill:#00BCE4;}
</style>
<rect x="5.9" y="57" class="st0" width="432" height="88.7"/>
<g>
	<path class="st1" d="M96.4,81h12.5l10.2,16.5L129.3,81h12.5v42.7H130V99.2l-10.9,16.7h-0.2L108,99.3v24.4H96.4V81z"/>
	<path class="st1" d="M156.4,81h34.3v10h-22.6v6.5h20.5v9.3h-20.5v6.8H191v10.1h-34.6V81z"/>
	<path class="st1" d="M213.6,91.4h-12.7V81h37.4v10.4h-12.8v32.3h-11.8V91.4z"/>
	<path class="st1" d="M257.7,80.7h11.4l18.2,43h-12.7l-3-7.7H255l-3,7.7h-12.4L257.7,80.7z M268.1,106.8l-4.8-12.1l-4.8,12.1H268.1z
		"/>
	<path class="st1" d="M292.1,117.4l6.6-7.9c4.3,3.4,8.9,5.1,13.8,5.1c3.2,0,4.9-1.1,4.9-2.9v-0.1c0-1.8-1.4-2.7-7.3-4.1
		c-9.1-2.1-16.1-4.6-16.1-13.3V94c0-7.9,6.3-13.7,16.5-13.7c7.3,0,12.9,2,17.6,5.7l-5.9,8.3c-3.9-2.8-8.2-4.2-11.9-4.2
		c-2.9,0-4.3,1.2-4.3,2.7V93c0,2,1.5,2.8,7.4,4.1c9.8,2.1,15.8,5.3,15.8,13.3v0.1c0,8.7-6.9,13.9-17.2,13.9
		C304.5,124.4,297.4,122.1,292.1,117.4z"/>
	<path class="st1" d="M350.1,107.7L333.9,81h13.5l8.8,15.5l8.8-15.5h13.2L362,107.5v16.1h-11.8V107.7z"/>
	<path class="st1" d="M380.7,117.4l6.6-7.9c4.3,3.4,8.9,5.1,13.8,5.1c3.2,0,4.9-1.1,4.9-2.9v-0.1c0-1.8-1.4-2.7-7.3-4.1
		c-9.1-2.1-16.1-4.6-16.1-13.3V94c0-7.9,6.3-13.7,16.5-13.7c7.3,0,12.9,2,17.6,5.7l-5.9,8.3c-3.9-2.8-8.2-4.2-11.9-4.2
		c-2.9,0-4.3,1.2-4.3,2.7V93c0,2,1.5,2.8,7.4,4.1c9.8,2.1,15.8,5.3,15.8,13.3v0.1c0,8.7-6.9,13.9-17.2,13.9
		C393.2,124.4,386,122.1,380.7,117.4z"/>
</g>
<polygon class="st2" points="39.6,66.5 22.6,76.3 22.6,117.8 39.6,108 "/>
<polygon class="st3" points="41.8,75.8 41.8,95.5 77.7,116.2 77.7,96.6 "/>
<polygon class="st1" points="68.5,113.4 51.6,103.6 15.6,124.3 32.6,134.1 "/>
<path class="st1" d="M420.9,84.7L420.9,84.7c0-2.2,1.8-4,4-4c2.2,0,4,1.8,4,4v0c0,2.2-1.8,4-4,4C422.6,88.6,420.9,86.8,420.9,84.7z
	M428.2,84.6L428.2,84.6c0-1.8-1.4-3.3-3.3-3.3c-1.9,0-3.3,1.5-3.3,3.3v0c0,1.8,1.4,3.3,3.3,3.3C426.7,88,428.2,86.4,428.2,84.6z
	M423.2,82.5h1.9c1,0,1.7,0.4,1.7,1.4c0,0.7-0.4,1.1-0.9,1.3l1.1,1.5h-1.2l-0.9-1.3h-0.6v1.3h-1V82.5z M425.1,84.5
	c0.5,0,0.7-0.2,0.7-0.6c0-0.4-0.3-0.6-0.7-0.6h-0.9v1.1H425.1z"/>
</svg>
